<svg id="Layer_1" data-name="Layer 1" xmlns="http://www.w3.org/2000/svg" viewBox="0 0 521.91 94.39"><path d="M37.78,305.71l12.35-12.34-2.57-2.57a21,21,0,0,1,29.75-29.74l2.56,2.56,12.35-12.35-2.56-2.56a38.49,38.49,0,0,0-54.44,54.44Z" transform="translate(-23.96 -237.45)"/><path d="M82.42,266.14l-2.56-2.57L67.51,275.92l2.57,2.56a21,21,0,0,1-14.86,35.9h0a20.92,20.92,0,0,1-14.87-6.15l-2.56-2.57L25.42,318,28,320.57a38.49,38.49,0,0,0,54.43-54.43Z" transform="translate(-23.96 -237.45)"/><path d="M151.6,294.94a30.65,30.65,0,0,0,7.64,7,18.64,18.64,0,0,0,10.06,2.5,20.55,20.55,0,0,0,6-.87A11.77,11.77,0,0,0,180,301a5.61,5.61,0,0,0,1.81-4.27A5.83,5.83,0,0,0,178,291.2a40.16,40.16,0,0,0-10.59-2.84q-8.55-1.44-13.58-5.11t-5-10.78a12.33,12.33,0,0,1,2.8-8.09,17.79,17.79,0,0,1,7.41-5.22,27.5,27.5,0,0,1,10.14-1.82,27.93,27.93,0,0,1,12.06,2.42,18.89,18.89,0,0,1,8,6.89l-5.6,5.82a19.17,19.17,0,0,0-6.09-5.63,16.63,16.63,0,0,0-8.59-2.16,16.36,16.36,0,0,0-8.28,1.93,6.23,6.23,0,0,0,.19,11.16,34.78,34.78,0,0,0,9.45,2.72,57,57,0,0,1,7.42,1.67,27.27,27.27,0,0,1,6.39,2.76,14,14,0,0,1,4.5,4.16,10.46,10.46,0,0,1,1.66,6,15,15,0,0,1-2.61,8.81,17,17,0,0,1-7.45,5.83,28.68,28.68,0,0,1-11.42,2.08,31.92,31.92,0,0,1-12.63-2.42,25.53,25.53,0,0,1-10-7.87Z" transform="translate(-23.96 -237.45)"/><path d="M260.23,258v30.72a22.94,22.94,0,0,1-3,11.72,21.56,21.56,0,0,1-8.28,8.1,26.7,26.7,0,0,1-24.4,0,21.61,21.61,0,0,1-8.25-8.1,22.93,22.93,0,0,1-3-11.72V258h8.17v30.19a15.17,15.17,0,0,0,15.28,15.43,15.79,15.79,0,0,0,7.86-2,15.5,15.5,0,0,0,5.68-5.49,15,15,0,0,0,2.12-7.94V258Z" transform="translate(-23.96 -237.45)"/><path d="M328.76,258.1h8.17v52.95h-7.79l-35.4-40.92q.45,4.68.91,9.42t.45,9.49v22h-8.17V258.1h7.64L330,300q-.53-3.7-.79-7.94t-.34-8.51q-.07-4.28-.08-8.06Z" transform="translate(-23.96 -237.45)"/><path d="M387.54,258.1a29.79,29.79,0,0,1,11.57,2.08,23.71,23.71,0,0,1,8.4,5.75,24.33,24.33,0,0,1,5.11,8.47,30.38,30.38,0,0,1,1.7,10.18,29.06,29.06,0,0,1-3,13.27,23.17,23.17,0,0,1-9,9.61q-6,3.6-14.75,3.59H364.39V258.1Zm-.38,45.09q6.58,0,10.71-2.54a15.34,15.34,0,0,0,6.05-6.73,23.3,23.3,0,0,0,0-18.57,15.38,15.38,0,0,0-6.09-6.81A20,20,0,0,0,387.16,266h-14.6v37.22Z" transform="translate(-23.96 -237.45)"/><path d="M475.44,311.05,470,298.19H444.28l-5.52,12.86h-8.4L453,258.1h8.85l22.46,52.95Zm-22.39-33.43-5.44,12.71h19.06l-5.6-13q-1-2.49-2-5.1c-.65-1.74-1.31-3.54-2-5.41-.71,1.92-1.39,3.78-2,5.6S453.76,276,453.05,277.62Z" transform="translate(-23.96 -237.45)"/><path d="M545.87,258.1l-21.79,30.71v22.24h-8.17V289L492.62,258.1h10.43l17.1,23.37,16-23.37Z" transform="translate(-23.96 -237.45)"/></svg>