<?xml version="1.0" encoding="UTF-8"?><svg id="Laag_1" xmlns="http://www.w3.org/2000/svg" xmlns:xlink="http://www.w3.org/1999/xlink" viewBox="0 0 1081.26 562.69"><defs><style>.cls-1{fill:url(#linear-gradient);}.cls-2{fill:url(#linear-gradient-3);}.cls-3{fill:url(#linear-gradient-4);}.cls-4{fill:url(#linear-gradient-2);}.cls-5{fill:url(#linear-gradient-6);}.cls-6{fill:url(#linear-gradient-5);}</style><linearGradient id="linear-gradient" x1="1342.55" y1="3.44" x2="2162.3" y2="3.44" gradientTransform="translate(-152.13 1182.41) rotate(-39.49) scale(.73 .79)" gradientUnits="userSpaceOnUse"><stop offset="0" stop-color="#ffcd9e"/><stop offset=".25" stop-color="#ff5e4f"/><stop offset=".55" stop-color="#d900d5"/><stop offset="1" stop-color="#410dff"/><stop offset="1" stop-color="#203aeb"/></linearGradient><linearGradient id="linear-gradient-2" x1="1548.51" y1="-116.85" x2="2042.06" y2="-116.85" gradientTransform="translate(-371.95 1573.87) rotate(-39.5) scale(1 1.78)" gradientUnits="userSpaceOnUse"><stop offset="0" stop-color="#203aeb"/><stop offset="0" stop-color="#410dff"/><stop offset=".45" stop-color="#d900d5"/><stop offset=".75" stop-color="#ff5e4f"/><stop offset="1" stop-color="#ffcd9e"/></linearGradient><linearGradient id="linear-gradient-3" x1="1247.38" y1="-335.71" x2="1682.78" y2="-335.71" gradientTransform="translate(-48.72 1307.87) rotate(-39.49) scale(.73 1.78)" xlink:href="#linear-gradient"/><linearGradient id="linear-gradient-4" x1="1022.2" y1="-805.23" x2="2104.39" y2="-805.23" gradientTransform="translate(-254.07 1289.66) rotate(-39.49) scale(.73 .5)" xlink:href="#linear-gradient-2"/><linearGradient id="linear-gradient-5" x1="1028.36" y1="-893.48" x2="1485.4" y2="-893.48" gradientTransform="translate(-187.97 1138.18) rotate(-39.49) scale(.73 .5)" xlink:href="#linear-gradient-2"/><linearGradient id="linear-gradient-6" x1="973.4" y1="-1138.65" x2="1430.44" y2="-1138.65" gradientTransform="translate(-187.97 1138.18) rotate(-39.49) scale(.73 .5)" xlink:href="#linear-gradient-2"/></defs><g id="Line"><path class="cls-1" d="m1068.46,188.29l-452.49,372.93c-2.74,2.26-6.79,1.87-9.05-.87h0c-2.26-2.74-1.87-6.79.87-9.05l452.49-372.93c2.74-2.26,6.79-1.87,9.05.87h0c2.26,2.74,1.87,6.79-.87,9.05Z"/><path class="cls-4" d="m1078.07,120.71l-369.19,304.27c-3.73,3.08-9.25,2.54-12.33-1.19h0c-3.08-3.73-2.54-9.25,1.19-12.33l369.19-304.27c3.73-3.08,9.25-2.54,12.33,1.19h0c3.08,3.73,2.54,9.25-1.19,12.33Z"/><path class="cls-2" d="m519.67,75.56l-233.68,192.6c-3.29,2.71-8.16,2.24-10.87-1.05h0c-2.71-3.29-2.24-8.16,1.05-10.87L509.84,63.64c3.29-2.71,8.16-2.24,10.87,1.05h0c2.71,3.29,2.24,8.16-1.05,10.87Z"/><path class="cls-3" d="m677.27,9.52L75.11,505.8c-2.29,1.89-5.68,1.56-7.56-.73h0c-1.89-2.29-1.56-5.68.73-7.57L670.43,1.23c2.29-1.89,5.68-1.56,7.57.73h0c1.89,2.29,1.56,5.68-.73,7.57Z"/><path class="cls-6" d="m366.67,107.54l-254.31,209.59c-.97.8-2.4.66-3.19-.31h0c-.8-.97-.66-2.4.31-3.19l254.31-209.59c.97-.8,2.4-.66,3.19.31h0c.8.97.66,2.4-.31,3.19Z"/><path class="cls-5" d="m258.02,38.89L3.71,248.49c-.97.8-2.4.66-3.19-.31h0c-.8-.97-.66-2.4.31-3.19L255.14,35.39c.97-.8,2.4-.66,3.19.31h0c.8.97.66,2.4-.31,3.19Z"/></g></svg>