<?xml version="1.0" encoding="UTF-8"?><svg id="Laag_1" xmlns="http://www.w3.org/2000/svg" viewBox="0 0 884.88 194.35"><defs><style>.cls-1{fill:#fff;}</style></defs><path class="cls-1" d="m688.28,12.27c0-6.78,5.49-12.27,12.27-12.27s12.27,5.49,12.27,12.27-5.49,12.27-12.27,12.27-12.27-5.49-12.27-12.27Zm-73.76,12.27c6.78,0,12.27-5.49,12.27-12.27s-5.49-12.27-12.27-12.27-12.27,5.49-12.27,12.27,5.49,12.27,12.27,12.27Zm-86.03,0c6.78,0,12.27-5.49,12.27-12.27s-5.49-12.27-12.27-12.27-12.27,5.49-12.27,12.27,5.49,12.27,12.27,12.27Zm-86.04,0c6.78,0,12.27-5.49,12.27-12.27s-5.49-12.27-12.27-12.27-12.27,5.49-12.27,12.27,5.49,12.27,12.27,12.27Zm-86.03,0c6.78,0,12.27-5.49,12.27-12.27s-5.49-12.27-12.27-12.27-12.27,5.49-12.27,12.27,5.49,12.27,12.27,12.27Zm-86.03,0c6.78,0,12.27-5.49,12.27-12.27s-5.49-12.27-12.27-12.27-12.27,5.49-12.27,12.27,5.49,12.27,12.27,12.27Zm-86.03,0c6.78,0,12.27-5.49,12.27-12.27s-5.49-12.27-12.27-12.27-12.27,5.49-12.27,12.27,5.49,12.27,12.27,12.27Zm-86.03,0c6.78,0,12.27-5.49,12.27-12.27S105.08,0,98.3,0s-12.27,5.49-12.27,12.27,5.49,12.27,12.27,12.27Zm-86.03,0c6.78,0,12.27-5.49,12.27-12.27S19.05,0,12.27,0,0,5.49,0,12.27s5.49,12.27,12.27,12.27Zm860.34,84.9c6.78,0,12.27-5.49,12.27-12.27s-5.49-12.27-12.27-12.27-12.27,5.49-12.27,12.27,5.49,12.27,12.27,12.27Zm-86.03,0c6.78,0,12.27-5.49,12.27-12.27s-5.49-12.27-12.27-12.27-12.27,5.49-12.27,12.27,5.49,12.27,12.27,12.27Zm-86.03,0c6.78,0,12.27-5.49,12.27-12.27s-5.49-12.27-12.27-12.27-12.27,5.49-12.27,12.27,5.49,12.27,12.27,12.27Zm-86.03,0c6.78,0,12.27-5.49,12.27-12.27s-5.49-12.27-12.27-12.27-12.27,5.49-12.27,12.27,5.49,12.27,12.27,12.27Zm-86.03,0c6.78,0,12.27-5.49,12.27-12.27s-5.49-12.27-12.27-12.27-12.27,5.49-12.27,12.27,5.49,12.27,12.27,12.27Zm-86.04,0c6.78,0,12.27-5.49,12.27-12.27s-5.49-12.27-12.27-12.27-12.27,5.49-12.27,12.27,5.49,12.27,12.27,12.27Zm-86.03,0c6.78,0,12.27-5.49,12.27-12.27s-5.49-12.27-12.27-12.27-12.27,5.49-12.27,12.27,5.49,12.27,12.27,12.27Zm-86.03,0c6.78,0,12.27-5.49,12.27-12.27s-5.49-12.27-12.27-12.27-12.27,5.49-12.27,12.27,5.49,12.27,12.27,12.27Zm-86.03,0c6.78,0,12.27-5.49,12.27-12.27s-5.49-12.27-12.27-12.27-12.27,5.49-12.27,12.27,5.49,12.27,12.27,12.27Zm602.73,84.9c6.78,0,12.27-5.49,12.27-12.27s-5.49-12.27-12.27-12.27-12.27,5.49-12.27,12.27,5.49,12.27,12.27,12.27Zm-86.03,0c6.78,0,12.27-5.49,12.27-12.27s-5.49-12.27-12.27-12.27-12.27,5.49-12.27,12.27,5.49,12.27,12.27,12.27Zm-86.03,0c6.78,0,12.27-5.49,12.27-12.27s-5.49-12.27-12.27-12.27-12.27,5.49-12.27,12.27,5.49,12.27,12.27,12.27Zm-86.04,0c6.78,0,12.27-5.49,12.27-12.27s-5.49-12.27-12.27-12.27-12.27,5.49-12.27,12.27,5.49,12.27,12.27,12.27Zm-86.03,0c6.78,0,12.27-5.49,12.27-12.27s-5.49-12.27-12.27-12.27-12.27,5.49-12.27,12.27,5.49,12.27,12.27,12.27Zm-86.03,0c6.78,0,12.27-5.49,12.27-12.27s-5.49-12.27-12.27-12.27-12.27,5.49-12.27,12.27,5.49,12.27,12.27,12.27Zm-86.03,0c6.78,0,12.27-5.49,12.27-12.27s-5.49-12.27-12.27-12.27-12.27,5.49-12.27,12.27,5.49,12.27,12.27,12.27Zm-86.03,0c6.78,0,12.27-5.49,12.27-12.27s-5.49-12.27-12.27-12.27-12.27,5.49-12.27,12.27,5.49,12.27,12.27,12.27Zm-86.03,0c6.78,0,12.27-5.49,12.27-12.27s-5.49-12.27-12.27-12.27-12.27,5.49-12.27,12.27,5.49,12.27,12.27,12.27Z"/></svg>