<?xml version="1.0" encoding="utf-8"?>
<!-- Generator: Adobe Illustrator 27.4.1, SVG Export Plug-In . SVG Version: 6.00 Build 0)  -->
<svg version="1.1" id="Laag_1" xmlns="http://www.w3.org/2000/svg" xmlns:xlink="http://www.w3.org/1999/xlink" x="0px" y="0px"
	 viewBox="0 0 884.9 194.3" style="enable-background:new 0 0 884.9 194.3;" xml:space="preserve">
<style type="text/css">
	.st0{fill:#FFFFFF;}
</style>
<g>
	<path class="st0" d="M688.3,12.3c0-6.8,5.5-12.3,12.3-12.3c6.8,0,12.3,5.5,12.3,12.3s-5.5,12.3-12.3,12.3
		C693.8,24.5,688.3,19,688.3,12.3z M614.5,24.5c6.8,0,12.3-5.5,12.3-12.3S621.3,0,614.5,0c-6.8,0-12.3,5.5-12.3,12.3
		S607.7,24.5,614.5,24.5z M528.5,24.5c6.8,0,12.3-5.5,12.3-12.3S535.3,0,528.5,0c-6.8,0-12.3,5.5-12.3,12.3S521.7,24.5,528.5,24.5z
		 M442.4,24.5c6.8,0,12.3-5.5,12.3-12.3S449.2,0,442.4,0c-6.8,0-12.3,5.5-12.3,12.3S435.7,24.5,442.4,24.5z M356.4,24.5
		c6.8,0,12.3-5.5,12.3-12.3S363.2,0,356.4,0c-6.8,0-12.3,5.5-12.3,12.3S349.6,24.5,356.4,24.5z M270.4,24.5
		c6.8,0,12.3-5.5,12.3-12.3S277.1,0,270.4,0s-12.3,5.5-12.3,12.3S263.6,24.5,270.4,24.5z M184.3,24.5c6.8,0,12.3-5.5,12.3-12.3
		S191.1,0,184.3,0c-6.8,0-12.3,5.5-12.3,12.3S177.6,24.5,184.3,24.5z M98.3,24.5c6.8,0,12.3-5.5,12.3-12.3S105.1,0,98.3,0
		C91.5,0,86,5.5,86,12.3S91.5,24.5,98.3,24.5z M12.3,24.5c6.8,0,12.3-5.5,12.3-12.3S19,0,12.3,0S0,5.5,0,12.3S5.5,24.5,12.3,24.5z
		 M872.6,109.4c6.8,0,12.3-5.5,12.3-12.3c0-6.8-5.5-12.3-12.3-12.3c-6.8,0-12.3,5.5-12.3,12.3C860.3,103.9,865.8,109.4,872.6,109.4z
		 M786.6,109.4c6.8,0,12.3-5.5,12.3-12.3c0-6.8-5.5-12.3-12.3-12.3c-6.8,0-12.3,5.5-12.3,12.3C774.3,103.9,779.8,109.4,786.6,109.4z
		 M700.5,109.4c6.8,0,12.3-5.5,12.3-12.3c0-6.8-5.5-12.3-12.3-12.3c-6.8,0-12.3,5.5-12.3,12.3C688.3,103.9,693.8,109.4,700.5,109.4z
		 M614.5,109.4c6.8,0,12.3-5.5,12.3-12.3c0-6.8-5.5-12.3-12.3-12.3c-6.8,0-12.3,5.5-12.3,12.3C602.2,103.9,607.7,109.4,614.5,109.4z
		 M528.5,109.4c6.8,0,12.3-5.5,12.3-12.3c0-6.8-5.5-12.3-12.3-12.3c-6.8,0-12.3,5.5-12.3,12.3C516.2,103.9,521.7,109.4,528.5,109.4z
		 M442.4,109.4c6.8,0,12.3-5.5,12.3-12.3c0-6.8-5.5-12.3-12.3-12.3c-6.8,0-12.3,5.5-12.3,12.3C430.2,103.9,435.7,109.4,442.4,109.4z
		 M356.4,109.4c6.8,0,12.3-5.5,12.3-12.3c0-6.8-5.5-12.3-12.3-12.3c-6.8,0-12.3,5.5-12.3,12.3C344.1,103.9,349.6,109.4,356.4,109.4z
		 M270.4,109.4c6.8,0,12.3-5.5,12.3-12.3c0-6.8-5.5-12.3-12.3-12.3s-12.3,5.5-12.3,12.3C258.1,103.9,263.6,109.4,270.4,109.4z
		 M184.3,109.4c6.8,0,12.3-5.5,12.3-12.3c0-6.8-5.5-12.3-12.3-12.3c-6.8,0-12.3,5.5-12.3,12.3C172.1,103.9,177.6,109.4,184.3,109.4z
		 M787.1,194.3c6.8,0,12.3-5.5,12.3-12.3s-5.5-12.3-12.3-12.3c-6.8,0-12.3,5.5-12.3,12.3S780.3,194.3,787.1,194.3z M701,194.3
		c6.8,0,12.3-5.5,12.3-12.3s-5.5-12.3-12.3-12.3c-6.8,0-12.3,5.5-12.3,12.3S694.3,194.3,701,194.3z M615,194.3
		c6.8,0,12.3-5.5,12.3-12.3s-5.5-12.3-12.3-12.3c-6.8,0-12.3,5.5-12.3,12.3S608.2,194.3,615,194.3z M529,194.3
		c6.8,0,12.3-5.5,12.3-12.3s-5.5-12.3-12.3-12.3c-6.8,0-12.3,5.5-12.3,12.3S522.2,194.3,529,194.3z M442.9,194.3
		c6.8,0,12.3-5.5,12.3-12.3s-5.5-12.3-12.3-12.3s-12.3,5.5-12.3,12.3S436.2,194.3,442.9,194.3z M356.9,194.3
		c6.8,0,12.3-5.5,12.3-12.3s-5.5-12.3-12.3-12.3s-12.3,5.5-12.3,12.3S350.1,194.3,356.9,194.3z M270.9,194.3
		c6.8,0,12.3-5.5,12.3-12.3s-5.5-12.3-12.3-12.3s-12.3,5.5-12.3,12.3S264.1,194.3,270.9,194.3z M184.8,194.3
		c6.8,0,12.3-5.5,12.3-12.3s-5.5-12.3-12.3-12.3s-12.3,5.5-12.3,12.3S178.1,194.3,184.8,194.3z M98.8,194.3
		c6.8,0,12.3-5.5,12.3-12.3s-5.5-12.3-12.3-12.3c-6.8,0-12.3,5.5-12.3,12.3S92,194.3,98.8,194.3z"/>
</g>
</svg>
